<!--?xml version="1.0" standalone="no"?-->
              <svg id="sw-js-blob-svg" viewBox="0 0 100 100" xmlns="http://www.w3.org/2000/svg" version="1.1">
                    <defs> 
                        <linearGradient id="sw-gradient" x1="0" x2="1" y1="1" y2="0">
                            <stop id="stop1" stop-color="rgba(248, 117, 55, 1)" offset="0%"></stop>
                            <stop id="stop2" stop-color="rgba(251, 168, 31, 1)" offset="100%"></stop>
                        </linearGradient>
                    </defs>
                <path fill="url(#sw-gradient)" d="M26.9,-31.9C32.5,-27.5,32.9,-16.7,31.9,-7.8C30.9,1.1,28.4,8.1,25.4,15.9C22.4,23.8,18.7,32.6,12.1,36.2C5.6,39.8,-3.9,38.2,-11.4,34.2C-18.8,30.2,-24.3,23.7,-27.2,16.7C-30.1,9.7,-30.3,2.1,-29.3,-5.5C-28.4,-13.1,-26.2,-20.9,-21.1,-25.4C-16,-29.9,-8,-31.2,1.3,-32.8C10.7,-34.4,21.4,-36.3,26.9,-31.9Z" width="100%" height="100%" transform="translate(50 50)" stroke-width="0" style="transition: 0.3s;"></path>
              </svg>